<svg width="368" height="600" viewBox="0 0 368 600" fill="none" xmlns="http://www.w3.org/2000/svg">
<path d="M164 0H185L206 3L226 9L243 17L260 29L273 41L283 53L292 67L300 84L305 99L307 110L308 121V136L306 152L302 168L296 183L288 198L279 210L271 219L263 226L249 236L233 244L219 249L210 251L208 240L206 231L225 224L239 216L249 208L259 199L269 186L276 174L279 166H253L251 164V154L252 152H284L286 139H258V127H287L286 125L285 115L258 114V101H282L276 86L267 70L258 59L252 52L238 41L224 33L209 27L197 24L189 23H162L145 27L130 33L119 39L106 49L94 61L84 75L76 91L71 107L69 118C69 118 68.2687 130.224 69 138C69.6312 144.712 72 155 72 155L78 173L87 189L96 200L106 210L118 219L112 226L106 234L100 231L90 223L77 210L65 193L57 178L51 161C51 161 47.861 148.304 47 140C45.9528 129.901 45.8787 124.092 47 114C47.8796 106.084 51 94 51 94L59 73L68 57L81 41L93 29L107 19L124 10L142 4L164 0Z" fill="#FF6B00"/>
<path d="M229 434L233 436L241 450L244 459V484L248 497L249 502V531L246 555L245 561L254 547L258 541L262 538H301L312 530L319 529L325 536L327 541L330 556L337 571L338 575V586L335 591L328 594H304L307 585L314 574V565L313 562L304 563L287 571L266 584L250 593L236 598L233 599H221L211 593L205 586L197 570L192 554L190 543V510L193 494L197 480L204 465L211 453L222 441L229 434Z" fill="#FF6B00"/>
<path d="M67 416H91L110 420L126 427L137 435L143 449L146 460V474L143 479L138 481H128L112 473L93 463L80 458L90 467L97 474L102 483V502L101 512V524L105 541L114 567L117 575L118 581V593L114 596L108 597L81 598L66 600H36L35 599V593L46 586L64 576L75 567L80 563L79 553L76 539L70 524L58 503L50 487L43 468L36 448V437L40 429L47 423L59 418L67 416Z" fill="#FF6B00"/>
<path d="M170 82H184L197 86L207 92L214 99L222 115L223 120V135L220 146L213 158L204 166L194 171L181 174L168 173L157 169L148 163L140 155L134 143L132 134V119L136 108L143 97L151 90L163 84L170 82Z" fill="#FF6B00"/>
<path d="M246 352H247L246 363L242 378L235 394L227 406L220 414L216 412L212 402V387L215 379L233 365L246 352Z" fill="#FF6B00"/>
<path d="M327 149L330 161V191L326 204L327 208L343 229L355 249L364 268L368 280V288L361 297L347 311L331 322L317 329L302 333L295 334H284V332L293 327L304 319L314 305L310 306L300 311L286 315H262L261 300L251 314L236 338L228 348L219 358L207 367L192 375L179 379H168L158 374L152 366L149 358V344H147V371L148 378L156 384L177 392L185 399L192 412V414H181L172 412L167 411L179 431V432L169 431L157 426L148 420L140 412L131 397L129 392L130 388L142 383L126 381L118 377L108 368L102 358L99 351L98 346V315H96L91 330L82 329L68 325H63L76 338L85 345V346H72L58 342L41 334L25 323L15 315L5 306L1 301L0 299V292L8 266L15 249L25 230L36 212L37 207L29 195V173L33 158L35 155L39 169L43 182L48 190L57 202L58 205V214L55 227L54 259L53 273L49 278L42 284V286L55 283H68L81 286L89 290L94 288L98 286H109L112 288L117 303L123 315L131 325L141 333L145 334L155 329L182 308L187 303V282L183 283L179 296L172 305L163 313L152 318L148 319H141L138 316L136 308V303L141 297L129 296L128 275L121 272L117 263L116 259V252L119 242L127 231L136 224L146 219L151 218H162L173 222L183 231L188 239L190 244V250L180 259H178L179 262L188 261L192 265L193 267L192 276L190 280L203 283L211 287L215 285L223 277L239 269L243 268H254L265 272L269 275L273 273L282 267L289 265H302L315 268L323 271L315 263L312 258L311 253L310 226L303 210V196L314 175L318 163L320 154L321 143H323L327 149ZM150 269L140 272L136 276L141 282H147L152 279L160 269L156 268L150 269Z" fill="#FF6B00"/>
</svg>
